<svg width="1440" height="810" viewBox="0 0 1440 810" fill="none" xmlns="http://www.w3.org/2000/svg">
<rect width="1440" height="808" fill="#F9FAFB"/>
<path d="M232 2H0V810H232V2Z" fill="white"/>
<path d="M232 2H0V94H232V2Z" fill="white"/>
<mask id="path-4-inside-1_2083_6382" fill="white">
<path d="M232 0H0V52H232V0Z"/>
</mask>
<path d="M232 0H0V52H232V0Z" fill="white"/>
<path d="M0 52V51H232V52V53H0V52Z" fill="#C6C5C5" mask="url(#path-4-inside-1_2083_6382)"/>
<rect x="14" y="119" width="203" height="38" rx="7.12" fill="#EAE9E9"/>
<path d="M215 18V36M210 30L207 27L210 24M205 18H219C220.105 18 221 18.8954 221 20V34C221 35.1046 220.105 36 219 36H205C203.895 36 203 35.1046 203 34V20C203 18.8954 203.895 18 205 18Z" stroke="#889096" stroke-width="2" stroke-linecap="round" stroke-linejoin="round"/>
<text fill="#889096" xml:space="preserve" style="white-space: pre" font-family="Inter" font-size="14" font-weight="600" letter-spacing="0em"><tspan x="70" y="183.591">Canvas</tspan></text>
<path fill-rule="evenodd" clip-rule="evenodd" d="M43.5528 167.106C43.8343 166.965 44.1657 166.965 44.4472 167.106L54.4472 172.106C54.786 172.275 55 172.621 55 173C55 173.379 54.786 173.725 54.4472 173.894L44.4472 178.894C44.1657 179.035 43.8343 179.035 43.5528 178.894L33.5528 173.894C33.214 173.725 33 173.379 33 173C33 172.621 33.214 172.275 33.5528 172.106L43.5528 167.106ZM36.2361 173L44 176.882L51.7639 173L44 169.118L36.2361 173Z" fill="#889096"/>
<path d="M33.1055 182.553C33.3525 182.059 33.9532 181.859 34.4472 182.106L44 186.882L53.5528 182.106C54.0467 181.859 54.6474 182.059 54.8944 182.553C55.1414 183.047 54.9412 183.647 54.4472 183.894L44.4472 188.894C44.1657 189.035 43.8343 189.035 43.5528 188.894L33.5528 183.894C33.0588 183.647 32.8586 183.047 33.1055 182.553Z" fill="#889096"/>
<path d="M34.4472 177.106C33.9532 176.859 33.3525 177.059 33.1055 177.553C32.8586 178.047 33.0588 178.647 33.5528 178.894L43.5528 183.894C43.8343 184.035 44.1657 184.035 44.4472 183.894L54.4472 178.894C54.9412 178.647 55.1414 178.047 54.8944 177.553C54.6474 177.059 54.0467 176.859 53.5528 177.106L44 181.882L34.4472 177.106Z" fill="#889096"/>
<path fill-rule="evenodd" clip-rule="evenodd" d="M181.209 218.837C181.446 218.61 181.83 218.61 182.067 218.837L185.276 221.925L188.485 218.837C188.721 218.61 189.105 218.61 189.342 218.837C189.579 219.065 189.579 219.435 189.342 219.662L185.704 223.162C185.468 223.39 185.084 223.39 184.847 223.162L181.209 219.662C180.972 219.435 180.972 219.065 181.209 218.837Z" fill="#889096"/>
<text fill="#889096" xml:space="preserve" style="white-space: pre" font-family="Inter" font-size="14" font-weight="600" letter-spacing="0em"><tspan x="70" y="225.591">Library</tspan></text>
<path d="M36 227.2C36 226.206 36.8059 225.4 37.8 225.4H51V227.5C51 228.328 50.3284 229 49.5 229H37.8C36.8059 229 36 228.194 36 227.2ZM36 227.2V212.5C36 211.672 36.6716 211 37.5 211H49.5C50.3284 211 51 211.672 51 212.5V225.393M40.5 220H46.5M39.75 217H47.25" stroke="#889096" stroke-width="1.75" stroke-linecap="round" stroke-linejoin="round"/>
<text fill="#889096" xml:space="preserve" style="white-space: pre" font-family="Inter" font-size="14" font-weight="600" letter-spacing="0em"><tspan x="70" y="101.591">Dashboard</tspan></text>
<path d="M52 87H36C35.4477 87 35 87.4477 35 88V93C35 93.5523 35.4477 94 36 94H52C52.5523 94 53 93.5523 53 93V88C53 87.4477 52.5523 87 52 87Z" stroke="#889096" stroke-width="2" stroke-linecap="round" stroke-linejoin="round"/>
<path d="M41 98H36C35.4477 98 35 98.4477 35 99V104C35 104.552 35.4477 105 36 105H41C41.5523 105 42 104.552 42 104V99C42 98.4477 41.5523 98 41 98Z" stroke="#889096" stroke-width="2" stroke-linecap="round" stroke-linejoin="round"/>
<path d="M52 98H47C46.4477 98 46 98.4477 46 99V104C46 104.552 46.4477 105 47 105H52C52.5523 105 53 104.552 53 104V99C53 98.4477 52.5523 98 52 98Z" stroke="#889096" stroke-width="2" stroke-linecap="round" stroke-linejoin="round"/>
<text fill="#889096" xml:space="preserve" style="white-space: pre" font-family="Inter" font-size="14" font-weight="600" letter-spacing="0em"><tspan x="70" y="629.591">Settings</tspan></text>
<path fill-rule="evenodd" clip-rule="evenodd" d="M47.31 632.03C47.21 632.71 46.59 633.25 45.85 633.25H42.15C41.41 633.25 40.79 632.71 40.7 631.98L40.43 630.09C40.16 629.95 39.9 629.8 39.64 629.63L37.84 630.35C37.14 630.61 36.37 630.32 36.03 629.7L34.2 626.53C33.85 625.87 34 625.09 34.56 624.65L36.09 623.46C36.08 623.31 36.07 623.16 36.07 623C36.07 622.85 36.08 622.69 36.09 622.54L34.57 621.35C33.98 620.9 33.83 620.09 34.2 619.47L36.05 616.28C36.39 615.66 37.16 615.38 37.84 615.65L39.65 616.38C39.91 616.21 40.17 616.06 40.43 615.92L40.7 614.01C40.79 613.31 41.41 612.76 42.14 612.76H45.84C46.58 612.76 47.2 613.3 47.29 614.03L47.56 615.92C47.83 616.06 48.09 616.21 48.35 616.38L50.15 615.66C50.86 615.4 51.63 615.69 51.97 616.31L53.81 619.49C54.17 620.15 54.01 620.93 53.45 621.37L51.93 622.56C51.94 622.71 51.95 622.86 51.95 623.02C51.95 623.18 51.94 623.33 51.93 623.48L53.45 624.67C54.01 625.12 54.17 625.9 53.82 626.53L51.96 629.75C51.62 630.37 50.85 630.65 50.16 630.38L48.36 629.66C48.1 629.83 47.84 629.98 47.58 630.12L47.31 632.03ZM42.62 631.25H45.38L45.75 628.7L46.28 628.48C46.72 628.3 47.16 628.04 47.62 627.7L48.07 627.36L50.45 628.32L51.83 625.92L49.8 624.34L49.87 623.78L49.8731 623.753C49.902 623.503 49.93 623.261 49.93 623C49.93 622.73 49.9 622.47 49.87 622.22L49.8 621.66L51.83 620.08L50.44 617.68L48.05 618.64L47.6 618.29C47.18 617.97 46.73 617.71 46.27 617.52L45.75 617.3L45.38 614.75H42.62L42.25 617.3L41.72 617.51C41.28 617.7 40.84 617.95 40.38 618.3L39.93 618.63L37.55 617.68L36.16 620.07L38.19 621.65L38.12 622.21C38.09 622.47 38.06 622.74 38.06 623C38.06 623.26 38.08 623.53 38.12 623.78L38.19 624.34L36.16 625.92L37.54 628.32L39.93 627.36L40.38 627.71C40.81 628.04 41.24 628.29 41.71 628.48L42.24 628.7L42.62 631.25ZM47.5 623C47.5 624.933 45.933 626.5 44 626.5C42.067 626.5 40.5 624.933 40.5 623C40.5 621.067 42.067 619.5 44 619.5C45.933 619.5 47.5 621.067 47.5 623Z" fill="#889096"/>
<text fill="#889096" xml:space="preserve" style="white-space: pre" font-family="Inter" font-size="14" font-weight="600" letter-spacing="0em"><tspan x="70" y="667.591">Help &#38; Support</tspan></text>
<path d="M41.575 660.5C41.771 659.943 42.1577 659.473 42.6667 659.174C43.1757 658.875 43.7741 658.766 44.356 658.866C44.9379 658.965 45.4657 659.268 45.8459 659.72C46.2261 660.171 46.4342 660.743 46.4334 661.333C46.4334 663 43.9334 663.833 43.9334 663.833M44 667.167H44.0083M52.3333 663C52.3333 667.602 48.6023 671.333 44 671.333C39.3976 671.333 35.6666 667.602 35.6666 663C35.6666 658.398 39.3976 654.667 44 654.667C48.6023 654.667 52.3333 658.398 52.3333 663Z" stroke="#889096" stroke-width="1.25" stroke-linecap="round" stroke-linejoin="round"/>
<rect x="32" y="733" width="185" height="36.3462" rx="7.11538" fill="#EAE9E9"/>
<rect x="36.0023" y="737.002" width="86.274" height="28.3413" rx="4.89183" fill="white"/>
<rect x="36.0023" y="737.002" width="86.274" height="28.3413" rx="4.89183" stroke="#D9D9D9" stroke-width="0.889423"/>
<g clip-path="url(#clip0_2083_6382)">
<path d="M63.6746 744.651C63.6746 744.323 63.4092 744.058 63.0817 744.058C62.7542 744.058 62.4887 744.323 62.4887 744.651V745.244C62.4887 745.571 62.7542 745.836 63.0817 745.836C63.4092 745.836 63.6746 745.571 63.6746 745.244V744.651Z" fill="#889096"/>
<path d="M58.7574 746.01C58.5258 745.779 58.1504 745.779 57.9188 746.01C57.6873 746.242 57.6873 746.617 57.9188 746.849L58.5118 747.442C58.7433 747.673 59.1188 747.673 59.3503 747.442C59.5819 747.21 59.5819 746.835 59.3503 746.603L58.7574 746.01Z" fill="#889096"/>
<path d="M68.2446 746.849C68.4761 746.617 68.4761 746.242 68.2446 746.01C68.013 745.779 67.6376 745.779 67.406 746.01L66.8131 746.603C66.5815 746.835 66.5815 747.21 66.8131 747.442C67.0446 747.673 67.4201 747.673 67.6516 747.442L68.2446 746.849Z" fill="#889096"/>
<path fill-rule="evenodd" clip-rule="evenodd" d="M63.0817 747.022C61.9809 747.022 60.9251 747.46 60.1467 748.238C59.3684 749.016 58.9311 750.072 58.9311 751.173C58.9311 752.274 59.3684 753.33 60.1467 754.108C60.9251 754.886 61.9809 755.324 63.0817 755.324C64.1825 755.324 65.2382 754.886 66.0166 754.108C66.795 753.33 67.2323 752.274 67.2323 751.173C67.2323 750.072 66.795 749.016 66.0166 748.238C65.2382 747.46 64.1825 747.022 63.0817 747.022ZM60.9853 749.077C61.5413 748.521 62.2954 748.208 63.0817 748.208C63.868 748.208 64.6221 748.521 65.1781 749.077C65.7341 749.633 66.0464 750.387 66.0464 751.173C66.0464 751.959 65.7341 752.713 65.1781 753.269C64.6221 753.825 63.868 754.138 63.0817 754.138C62.2954 754.138 61.5413 753.825 60.9853 753.269C60.4293 752.713 60.1169 751.959 60.1169 751.173C60.1169 750.387 60.4293 749.633 60.9853 749.077Z" fill="#889096"/>
<path d="M56.5593 750.58C56.2318 750.58 55.9663 750.846 55.9663 751.173C55.9663 751.5 56.2318 751.766 56.5593 751.766H57.1522C57.4797 751.766 57.7452 751.5 57.7452 751.173C57.7452 750.846 57.4797 750.58 57.1522 750.58H56.5593Z" fill="#889096"/>
<path d="M69.0112 750.58C68.6837 750.58 68.4182 750.846 68.4182 751.173C68.4182 751.5 68.6837 751.766 69.0112 751.766H69.6041C69.9316 751.766 70.1971 751.5 70.1971 751.173C70.1971 750.846 69.9316 750.58 69.6041 750.58H69.0112Z" fill="#889096"/>
<path d="M59.3503 755.743C59.5819 755.511 59.5819 755.136 59.3503 754.904C59.1188 754.673 58.7433 754.673 58.5118 754.904L57.9188 755.497C57.6873 755.729 57.6873 756.104 57.9188 756.336C58.1504 756.567 58.5258 756.567 58.7574 756.336L59.3503 755.743Z" fill="#889096"/>
<path d="M68.2446 755.497L67.6516 754.904C67.4201 754.673 67.0446 754.673 66.8131 754.904C66.5815 755.136 66.5815 755.511 66.8131 755.743L67.406 756.336C67.6376 756.567 68.013 756.567 68.2446 756.336C68.4761 756.104 68.4761 755.729 68.2446 755.497Z" fill="#889096"/>
<path d="M63.6746 757.102C63.6746 756.775 63.4092 756.51 63.0817 756.51C62.7542 756.51 62.4887 756.775 62.4887 757.102V757.695C62.4887 758.023 62.7542 758.288 63.0817 758.288C63.4092 758.288 63.6746 758.023 63.6746 757.695V757.102Z" fill="#889096"/>
</g>
<text fill="#889096" xml:space="preserve" style="white-space: pre" font-family="Inter" font-size="10.6731" font-weight="500" letter-spacing="-0.02em"><tspan x="77.3124" y="754.669">Light</tspan></text>
<path fill-rule="evenodd" clip-rule="evenodd" d="M152.687 745.836C152.687 745.631 152.581 745.441 152.406 745.333C152.232 745.224 152.014 745.214 151.83 745.305C150.792 745.821 149.918 746.615 149.307 747.601C148.697 748.586 148.373 749.721 148.374 750.88C148.373 752.284 148.847 753.647 149.718 754.748C150.59 755.848 151.809 756.622 153.176 756.942C154.542 757.262 155.978 757.111 157.248 756.513C158.518 755.914 159.548 754.904 160.171 753.645C160.262 753.462 160.252 753.244 160.143 753.07C160.035 752.895 159.845 752.789 159.64 752.789C157.208 752.789 155.499 752.186 154.394 751.082C153.289 749.977 152.687 748.268 152.687 745.836ZM150.315 748.225C150.639 747.703 151.054 747.247 151.537 746.878C151.692 749.001 152.341 750.706 153.556 751.92C154.77 753.135 156.475 753.784 158.599 753.939C158.112 754.577 157.477 755.094 156.742 755.44C155.714 755.924 154.553 756.047 153.446 755.787C152.34 755.528 151.354 754.902 150.648 754.011C149.942 753.121 149.559 752.017 149.559 750.881C149.559 749.943 149.821 749.023 150.315 748.225Z" fill="#889096"/>
<text fill="#889096" xml:space="preserve" style="white-space: pre" font-family="Inter" font-size="10.6731" font-weight="500" letter-spacing="-0.02em"><tspan x="168.534" y="754.669">Dark</tspan></text>
<text fill="#889096" xml:space="preserve" style="white-space: pre" font-family="Inter" font-size="14" font-weight="600" letter-spacing="0em"><tspan x="70" y="265.591">Files</tspan></text>
<path d="M35 258H55M35 266V254C35 252.895 35.8954 252 37 252H40.1716C40.702 252 41.2107 252.211 41.5858 252.586L42.4142 253.414C42.7893 253.789 43.298 254 43.8284 254H53C54.1046 254 55 254.895 55 256V266C55 267.105 54.1046 268 53 268H37C35.8954 268 35 267.105 35 266Z" stroke="#889096" stroke-width="2" stroke-linecap="round"/>
<text fill="#889096" xml:space="preserve" style="white-space: pre" font-family="Inter" font-size="14" font-weight="600" letter-spacing="0em"><tspan x="70" y="143.591">Write</tspan></text>
<path d="M41 129H42.2227C43.3099 129 44.1904 129.876 44.1904 130.959V144.109C44.1904 145.192 43.3099 146.068 42.2227 146.068H41" stroke="#889096" stroke-width="2" stroke-linecap="round" stroke-linejoin="round"/>
<path d="M47.381 129H46.1583C45.071 129 44.1906 129.876 44.1906 130.959V144.109C44.1906 145.192 45.071 146.068 46.1583 146.068H47.381" stroke="#889096" stroke-width="2" stroke-linecap="round" stroke-linejoin="round"/>
<path fill-rule="evenodd" clip-rule="evenodd" d="M181.209 136.337C181.446 136.11 181.83 136.11 182.067 136.337L185.276 139.425L188.485 136.337C188.721 136.11 189.105 136.11 189.342 136.337C189.579 136.565 189.579 136.935 189.342 137.162L185.704 140.662C185.468 140.89 185.084 140.89 184.847 140.662L181.209 137.162C180.972 136.935 180.972 136.565 181.209 136.337Z" fill="#889096"/>
<path d="M42.4948 29.6158C41.5905 28.8241 40.3976 27.7793 39.1572 26.6915C39.1617 26.6954 39.1655 26.6986 39.17 26.7024C36.1255 24.0318 32.7885 21.0972 32.7173 20.9996C32.5954 20.8313 32.3357 20.8628 32.3011 20.8679C32.2979 20.8679 32.2953 20.8679 32.2921 20.8679H29.5067C29.227 20.8679 29 21.0953 29 21.3752V32.2614C29 32.5427 29.2277 32.7706 29.5086 32.7706H31.6982C31.7341 32.7706 31.7636 32.7411 31.7636 32.7051V24.2629C31.7636 24.2584 31.7623 24.2546 31.7623 24.2501C31.7623 24.2462 31.763 24.243 31.7636 24.2392V24.2276H31.7649C31.7764 24.0902 31.89 23.9823 32.0298 23.9823C32.0843 23.9823 32.135 23.999 32.1773 24.0279L32.1818 24.0311C32.1959 24.0408 32.2087 24.0523 32.2203 24.0645L37.1767 28.3418L38.0726 29.1252L41.1928 31.8537L41.8842 32.4586C41.8842 32.4586 41.89 32.4643 41.8932 32.4676C42.2485 32.9081 42.4595 33.459 42.4595 34.0569C42.4595 35.5023 41.2281 36.6742 39.7087 36.6742C38.1894 36.6742 36.958 35.5023 36.958 34.0569C36.958 33.3088 37.2883 32.6345 37.8167 32.1574C37.8462 32.1311 37.8462 32.0848 37.8167 32.0592L35.917 30.4326C35.8914 30.4108 35.8529 30.4114 35.8285 30.4352C34.8665 31.3682 34.2732 32.6467 34.2732 34.0569C34.2732 36.9137 36.7072 39.2293 39.71 39.2293C42.7129 39.2293 45.1468 36.9137 45.1468 34.0569C45.1468 32.221 44.1713 31.0953 44.1174 31.0343C44.1155 31.0324 44.1142 31.0311 44.1123 31.0292C44.068 30.99 43.4382 30.439 42.4954 29.6139L42.4948 29.6158Z" fill="black"/>
<path d="M37.5046 23.6141C38.409 24.4058 39.6019 25.4505 40.8424 26.5382C40.8379 26.5344 40.834 26.5312 40.8296 26.5273C43.8742 29.1978 47.2113 32.1322 47.2825 32.2298C47.4133 32.4102 47.7026 32.3608 47.7026 32.3608H48.183H48.478H50.4933C50.7729 32.3608 50.9999 32.1335 50.9999 31.8535V20.968C50.9999 20.6868 50.7723 20.4589 50.4913 20.4589H48.2362V28.966C48.2362 28.9705 48.2375 28.9744 48.2375 28.9789C48.2375 28.9834 48.2369 28.9859 48.2362 28.9898V29.0013H48.235C48.2234 29.1387 48.1099 29.2466 47.9701 29.2466C47.9155 29.2466 47.8649 29.2299 47.8225 29.201L47.8181 29.1978C47.8039 29.1882 47.7911 29.1766 47.7796 29.1644L42.823 24.8874L41.927 24.1041L38.8066 21.3758L38.1101 20.7671C37.7528 20.3259 37.5393 19.7731 37.5393 19.1727C37.5393 17.7274 38.7707 16.5555 40.2901 16.5555C41.8096 16.5555 43.041 17.7274 43.041 19.1727C43.041 19.9471 42.6876 20.6425 42.1258 21.1215L44.1282 22.8359C45.1159 21.8997 45.7271 20.604 45.7271 19.1727C45.7265 16.3154 43.2925 14 40.2901 14C37.2878 14 34.8531 16.3154 34.8531 19.1721C34.8531 21.0599 35.8851 22.197 35.8851 22.197C35.8851 22.197 36.5265 22.7582 37.5046 23.6141Z" fill="black"/>
<g clip-path="url(#clip1_2083_6382)">
<mask id="path-34-inside-2_2083_6382" fill="white">
<path d="M1144 2H1440V810H1144V2Z"/>
</mask>
<mask id="path-36-outside-3_2083_6382" maskUnits="userSpaceOnUse" x="1143" y="2" width="297" height="808" fill="black">
<rect fill="white" x="1143" y="2" width="297" height="808"/>
<path d="M1144 2H1440V810H1144V2Z"/>
</mask>
<path d="M1144 2H1440V810H1144V2Z" fill="#EAE9E9"/>
<path d="M1144 810H1145V2H1144H1143V810H1144Z" fill="#C6C5C5" mask="url(#path-36-outside-3_2083_6382)"/>
<mask id="path-38-outside-4_2083_6382" maskUnits="userSpaceOnUse" x="1144" y="2" width="296" height="93" fill="black">
<rect fill="white" x="1144" y="2" width="296" height="93"/>
<path d="M1144 2H1440V94H1144V2Z"/>
</mask>
<path d="M1144 2H1440V94H1144V2Z" fill="#EAE9E9"/>
<path d="M1440 94V93H1144V94V95H1440V94Z" fill="#C6C5C5" mask="url(#path-38-outside-4_2083_6382)"/>
<rect x="1427.19" y="100.379" width="4.18966" height="62.8448" rx="2.09483" fill="#808080" fill-opacity="0.55"/>
<path d="M1149 675H1435V805H1149V675Z" fill="white"/>
<mask id="path-42-outside-5_2083_6382" maskUnits="userSpaceOnUse" x="1149" y="675" width="286" height="31" fill="black">
<rect fill="white" x="1149" y="675" width="286" height="31"/>
<path d="M1149 675H1435V705H1149V675Z"/>
</mask>
<path d="M1149 675H1435V705H1149V675Z" fill="white"/>
<path d="M1435 705V704H1149V705V706H1435V705Z" fill="#C6C5C5" mask="url(#path-42-outside-5_2083_6382)"/>
<text fill="black" xml:space="preserve" style="white-space: pre" font-family="Inter" font-size="12" letter-spacing="0em"><tspan x="1162" y="696.364">What&#x2019;s on your mind?</tspan></text>
<text fill="#C6C5C5" xml:space="preserve" style="white-space: pre" font-family="Inter" font-size="14" letter-spacing="0em"><tspan x="1162" y="727.089">Add your thoughts..</tspan></text>
<g clip-path="url(#clip2_2083_6382)">
<path fill-rule="evenodd" clip-rule="evenodd" d="M1410.24 691.474C1410.24 687.762 1413.24 684.753 1416.96 684.753C1420.67 684.753 1423.68 687.762 1423.68 691.474C1423.68 695.186 1420.67 698.195 1416.96 698.195C1413.24 698.195 1410.24 695.186 1410.24 691.474ZM1417.26 687.503C1417.6 687.503 1417.87 687.776 1417.87 688.114V690.558H1420.32C1420.65 690.558 1420.93 690.831 1420.93 691.169V691.78C1420.93 692.117 1420.65 692.391 1420.32 692.391H1417.87V694.835C1417.87 695.172 1417.6 695.446 1417.26 695.446H1416.65C1416.31 695.446 1416.04 695.172 1416.04 694.835V692.391H1413.6C1413.26 692.391 1412.99 692.117 1412.99 691.78V691.169C1412.99 690.831 1413.26 690.558 1413.6 690.558H1416.04V688.114C1416.04 687.776 1416.31 687.503 1416.65 687.503H1417.26Z" fill="#889096"/>
</g>
<rect x="1162" y="110" width="258.099" height="123.835" fill="#A5F7AC"/>
<text fill="black" xml:space="preserve" style="white-space: pre" font-family="Inter" font-size="14" letter-spacing="0em"><tspan x="1177.64" y="143.947">Lorem ipsum dolor sit amet, </tspan><tspan x="1177.64" y="157.339">consectetur adipiscing elit. </tspan></text>
<text fill="#090808" xml:space="preserve" style="white-space: pre" font-family="Inter" font-size="12" letter-spacing="0em"><tspan x="1177.01" y="221.431">Feb 8, 2021</tspan></text>
<rect x="1162" y="253.388" width="258.099" height="123.835" fill="#FAF9F9"/>
<text fill="#898989" xml:space="preserve" style="white-space: pre" font-family="Inter" font-size="14" letter-spacing="0em"><tspan x="1177.64" y="287.335">Lorem ipsum dolor sit amet, </tspan><tspan x="1177.64" y="300.727">consectetur adipiscing elit. Sed at </tspan><tspan x="1177.64" y="314.119">arcu dui. </tspan></text>
<text fill="#898989" xml:space="preserve" style="white-space: pre" font-family="Inter" font-size="12" letter-spacing="0em"><tspan x="1177.01" y="364.82">Feb 8, 2021</tspan></text>
<rect x="1162" y="397" width="258.099" height="123.835" fill="#FAF9F9"/>
<text fill="#898989" xml:space="preserve" style="white-space: pre" font-family="Inter" font-size="14" letter-spacing="0em"><tspan x="1177.64" y="430.947">Lorem ipsum dolor sit amet, </tspan><tspan x="1177.64" y="444.339">consectetur adipiscing elit. Sed at </tspan><tspan x="1177.64" y="457.731">arcu dui. </tspan></text>
<text fill="#898989" xml:space="preserve" style="white-space: pre" font-family="Inter" font-size="12" letter-spacing="0em"><tspan x="1177.01" y="508.431">Feb 8, 2021</tspan></text>
<rect x="1162" y="542" width="258.099" height="123.835" fill="#FAF9F9"/>
<text fill="#898989" xml:space="preserve" style="white-space: pre" font-family="Inter" font-size="14" letter-spacing="0em"><tspan x="1177.64" y="575.947">Lorem ipsum dolor sit amet, </tspan><tspan x="1177.64" y="589.339">consectetur adipiscing elit. Sed at </tspan><tspan x="1177.64" y="602.731">arcu dui. </tspan></text>
<text fill="#898989" xml:space="preserve" style="white-space: pre" font-family="Inter" font-size="12" letter-spacing="0em"><tspan x="1177.01" y="653.432">Feb 8, 2021</tspan></text>
<text fill="#889096" xml:space="preserve" style="white-space: pre" font-family="Inter" font-size="18" letter-spacing="0em"><tspan x="1264.78" y="50.942">Notes</tspan></text>
<path d="M1171.8 63.8577H1213.3V83.2395H1171.8C1166.45 83.2393 1162.11 78.9002 1162.11 73.5481C1162.11 68.1962 1166.45 63.8579 1171.8 63.8577Z" stroke="#889096" stroke-width="0.497586"/>
<text fill="#889096" xml:space="preserve" style="white-space: pre" font-family="Roboto" font-size="12" font-weight="500" letter-spacing="0.0496993px"><tspan x="1180.62" y="77.6201">All</tspan></text>
<rect x="1213.3" y="63.8571" width="51.1903" height="19.3827" fill="#A5F7AC"/>
<rect x="1213.3" y="63.8571" width="51.1903" height="19.3827" stroke="#889096" stroke-width="0.496993"/>
<text fill="#18181B" xml:space="preserve" style="white-space: pre" font-family="Roboto" font-size="12" font-weight="500" letter-spacing="0.0496993px"><tspan x="1219.81" y="77.6201">Person</tspan></text>
<g clip-path="url(#clip3_2083_6382)">
<text fill="#889096" xml:space="preserve" style="white-space: pre" font-family="Roboto" font-size="12" font-weight="500" letter-spacing="0.0496993px"><tspan x="1275.04" y="77.6201">Place</tspan></text>
</g>
<rect x="1264.49" y="63.8571" width="51.1903" height="19.3827" stroke="#889096" stroke-width="0.496993"/>
<rect x="1315.68" y="63.8571" width="51.1903" height="19.3827" stroke="#889096" stroke-width="0.496993"/>
<text fill="#889096" xml:space="preserve" style="white-space: pre" font-family="Roboto" font-size="12" font-weight="500" letter-spacing="0.0496993px"><tspan x="1330.44" y="77.6201">Plot</tspan></text>
<path d="M1408.37 63.8567C1413.72 63.8567 1418.06 68.1959 1418.06 73.5481C1418.06 78.9005 1413.72 83.2395 1408.37 83.2395H1366.87V63.8567H1408.37Z" stroke="#889096" stroke-width="0.496993"/>
<text fill="#889096" xml:space="preserve" style="white-space: pre" font-family="Roboto" font-size="12" font-weight="500" letter-spacing="0.0496993px"><tspan x="1379.39" y="77.6201">Misc</tspan></text>
<circle cx="1166" cy="22" r="9" fill="#FAF9F9"/>
<path fill-rule="evenodd" clip-rule="evenodd" d="M1163.78 26.0242C1163.54 25.7899 1163.54 25.41 1163.78 25.1757L1166.95 22L1163.78 18.8242C1163.54 18.5899 1163.54 18.21 1163.78 17.9757C1164.01 17.7414 1164.39 17.7414 1164.62 17.9757L1168.22 21.5757C1168.46 21.81 1168.46 22.1899 1168.22 22.4242L1164.62 26.0242C1164.39 26.2585 1164.01 26.2585 1163.78 26.0242Z" fill="#C6C5C5"/>
</g>
<path d="M1144 810H1145V2H1144H1143V810H1144Z" fill="#C6C5C5" mask="url(#path-34-inside-2_2083_6382)"/>
<text fill="#889096" xml:space="preserve" style="white-space: pre" font-family="Inter" font-size="14" font-weight="600" letter-spacing="0em"><tspan x="248" y="35.7708">WorkSpace</tspan></text>
<text fill="#889096" xml:space="preserve" style="white-space: pre" font-family="Inter" font-size="14" font-weight="600" letter-spacing="0em"><tspan x="385" y="35.7708">Write</tspan></text>
<text fill="#889096" xml:space="preserve" style="white-space: pre" font-family="Inter" font-size="14" font-weight="600" letter-spacing="0em"><tspan x="444" y="35.7708">Project 1</tspan></text>
<text fill="#889096" xml:space="preserve" style="white-space: pre" font-family="Inter" font-size="14" font-weight="600" letter-spacing="0em"><tspan x="520" y="35.7708">Chapter 1</tspan></text>
<text fill="#889096" xml:space="preserve" style="white-space: pre" font-family="Inter" font-size="14" font-weight="600" letter-spacing="0em"><tspan x="353" y="35.7708">...</tspan></text>
<path fill-rule="evenodd" clip-rule="evenodd" d="M333.838 26.389C333.61 26.6258 333.61 27.0097 333.838 27.2464L336.925 30.4555L333.838 33.6646C333.61 33.9014 333.61 34.2853 333.838 34.522C334.065 34.7588 334.435 34.7588 334.663 34.522L338.163 30.8842C338.39 30.6475 338.39 30.2636 338.163 30.0268L334.663 26.389C334.435 26.1522 334.065 26.1522 333.838 26.389Z" fill="#889096"/>
<path fill-rule="evenodd" clip-rule="evenodd" d="M372.838 26.389C372.61 26.6258 372.61 27.0097 372.838 27.2464L375.925 30.4555L372.838 33.6646C372.61 33.9014 372.61 34.2853 372.838 34.522C373.065 34.7588 373.435 34.7588 373.663 34.522L377.163 30.8842C377.39 30.6475 377.39 30.2636 377.163 30.0268L373.663 26.389C373.435 26.1522 373.065 26.1522 372.838 26.389Z" fill="#889096"/>
<path fill-rule="evenodd" clip-rule="evenodd" d="M431.838 26.389C431.61 26.6258 431.61 27.0097 431.838 27.2464L434.925 30.4555L431.838 33.6646C431.61 33.9014 431.61 34.2853 431.838 34.522C432.065 34.7588 432.435 34.7588 432.663 34.522L436.163 30.8842C436.39 30.6475 436.39 30.2636 436.163 30.0268L432.663 26.389C432.435 26.1522 432.065 26.1522 431.838 26.389Z" fill="#889096"/>
<path fill-rule="evenodd" clip-rule="evenodd" d="M507.838 26.389C507.61 26.6258 507.61 27.0097 507.838 27.2464L510.925 30.4555L507.838 33.6646C507.61 33.9014 507.61 34.2853 507.838 34.522C508.065 34.7588 508.435 34.7588 508.663 34.522L512.163 30.8842C512.39 30.6475 512.39 30.2636 512.163 30.0268L508.663 26.389C508.435 26.1522 508.065 26.1522 507.838 26.389Z" fill="#889096"/>
<g clip-path="url(#clip4_2083_6382)">
<rect x="960" y="12.1799" width="171" height="29" rx="14.5" fill="#FAF9F9"/>
<path fill-rule="evenodd" clip-rule="evenodd" d="M1112.76 27.5977L1116.9 31.738L1115.83 32.8146L1111.69 28.6743C1110.91 29.2307 1109.98 29.5703 1108.96 29.5703C1106.37 29.5703 1104.27 27.4676 1104.27 24.8736C1104.27 22.2797 1106.37 20.177 1108.96 20.177C1111.56 20.177 1113.66 22.2797 1113.66 24.8736C1113.66 25.8925 1113.32 26.8246 1112.76 27.5977ZM1108.96 21.6221C1107.16 21.6221 1105.71 23.0745 1105.71 24.8736C1105.71 26.6728 1107.16 28.1252 1108.96 28.1252C1110.76 28.1252 1112.21 26.6728 1112.21 24.8736C1112.21 23.0745 1110.76 21.6221 1108.96 21.6221Z" fill="#889096"/>
</g>
<path d="M248 113.18C248 103.791 255.611 96.1799 265 96.1799H1114C1123.39 96.1799 1131 103.791 1131 113.18V808.18H248V113.18Z" fill="white"/>
<text fill="black" xml:space="preserve" style="white-space: pre" font-family="Inter" font-size="36" font-weight="600" letter-spacing="0em"><tspan x="622.141" y="172.271">&#x201c;Origin&#x201d;</tspan></text>
<text fill="black" xml:space="preserve" style="white-space: pre" font-family="Inter" font-size="16" letter-spacing="0em"><tspan x="288" y="305.498">I thought learning to channel mana was difficult until I met Sylandria. The Dark Elf princess moved like </tspan><tspan x="288" y="324.498">shadow given form, her mana control making my six months of training look like a child playing with </tspan><tspan x="288" y="343.498">matches beside a master pyromancer.&#10;</tspan><tspan x="288" y="362.498">&#10;</tspan><tspan x="288" y="381.498">&#34;Your kind wastes so much energy,&#34; she told me during our first training session, her silver eyes narrowing </tspan><tspan x="288" y="400.498">as she watched me manifest a mana blade. &#34;You leak mana like a sieve.&#34;&#10;</tspan><tspan x="288" y="419.498">&#10;</tspan><tspan x="288" y="438.498">She placed her obsidian hand over mine, and I felt a strange pulling sensation as she absorbed the excess </tspan><tspan x="288" y="457.498">mana I couldn&#39;t properly control. The blue markings on my arm dimmed momentarily.&#10;</tspan><tspan x="288" y="476.498">&#34;The demons call your world &#39;The Wellspring&#39;,&#34; she explained later. &#34;They&#39;ve been planning this invasion for </tspan><tspan x="288" y="495.498">centuries. Vazriel needs human Channelers&#x2014;not as opponents, but as batteries. Your awakened abilities </tspan><tspan x="288" y="514.498">are merely side effects of his ritual beginning.&#34;&#10;</tspan><tspan x="288" y="533.498">&#10;</tspan><tspan x="288" y="552.498">When I asked why she was helping us, her expression darkened. &#34;Self-preservation, human. If Vazriel </tspan><tspan x="288" y="571.498">succeeds, all worlds collapse. Besides,&#34; her lips curved into a rare smile, &#34;my house has a particular </tspan><tspan x="288" y="590.498">interest in your bloodline. Those markings you carry... they&#39;re not entirely human in origin.&#34;&#10;</tspan><tspan x="288" y="609.498">&#10;</tspan><tspan x="288" y="628.498">The alliance between humans and Dark Elves reshapes the power dynamics in this new world. Dark Elf </tspan><tspan x="288" y="647.498">nobles begin seeking out specific human Channelers with unique mana signatures, revealing that certain </tspan><tspan x="288" y="666.498">human bloodlines carry traces of ancient cross-dimensional contact. These special Channelers discover </tspan><tspan x="288" y="685.498">they can form blood pacts with Dark Elves, dramatically enhancing both parties&#39; abilities.</tspan></text>
<rect x="248" y="707.18" width="883" height="101" fill="white"/>
<rect x="491.5" y="721.18" width="396" height="46" rx="5" fill="#EAE9E9"/>
<path fill-rule="evenodd" clip-rule="evenodd" d="M635.024 743.017C635.261 742.79 635.645 742.79 635.881 743.017L639.091 746.105L642.3 743.017C642.536 742.79 642.92 742.79 643.157 743.017C643.394 743.245 643.394 743.615 643.157 743.842L639.519 747.342C639.282 747.57 638.899 747.57 638.662 747.342L635.024 743.842C634.787 743.615 634.787 743.245 635.024 743.017Z" fill="#11181C"/>
<text fill="black" xml:space="preserve" style="white-space: pre" font-family="Inter" font-size="12" letter-spacing="0em"><tspan x="599.594" y="749.044">Inter</tspan></text>
<text fill="black" xml:space="preserve" style="white-space: pre" font-family="Inter" font-size="18" font-weight="600" letter-spacing="0em"><tspan x="743.5" y="751.225">B</tspan></text>
<text fill="black" xml:space="preserve" style="white-space: pre" font-family="Inter" font-size="18" font-weight="600" letter-spacing="0em" text-decoration="underline"><tspan x="811.626" y="749.725">U</tspan></text>
<text fill="black" xml:space="preserve" style="white-space: pre" font-family="Source Serif Pro" font-size="18" font-style="italic" font-weight="600" letter-spacing="0em"><tspan x="779.5" y="750.927">I</tspan></text>
<path fill-rule="evenodd" clip-rule="evenodd" d="M692.189 743.017C692.426 742.79 692.81 742.79 693.047 743.017L696.256 746.105L699.465 743.017C699.702 742.79 700.086 742.79 700.322 743.017C700.559 743.245 700.559 743.615 700.322 743.842L696.685 747.342C696.448 747.57 696.064 747.57 695.827 747.342L692.189 743.842C691.953 743.615 691.953 743.245 692.189 743.017Z" fill="#11181C"/>
<text fill="black" xml:space="preserve" style="white-space: pre" font-family="Inter" font-size="12" letter-spacing="0em"><tspan x="667.154" y="749.044">12</tspan></text>
<line x1="720.411" y1="726.18" x2="720.411" y2="761.18" stroke="black" stroke-width="0.5"/>
<line x1="580.096" y1="726.18" x2="580.096" y2="761.18" stroke="black" stroke-width="0.5"/>
<path d="M852.161 737.18C851.587 737.18 851.122 737.628 851.122 738.18C851.122 738.732 851.587 739.18 852.161 739.18H870.87C871.444 739.18 871.909 738.732 871.909 738.18C871.909 737.628 871.444 737.18 870.87 737.18H852.161Z" fill="#11181C"/>
<path d="M852.161 745.18C851.587 745.18 851.122 745.628 851.122 746.18C851.122 746.732 851.587 747.18 852.161 747.18H870.87C871.444 747.18 871.909 746.732 871.909 746.18C871.909 745.628 871.444 745.18 870.87 745.18H852.161Z" fill="#11181C"/>
<path d="M854.24 742.18C854.24 741.628 854.706 741.18 855.28 741.18H867.752C868.326 741.18 868.791 741.628 868.791 742.18C868.791 742.732 868.326 743.18 867.752 743.18H855.28C854.706 743.18 854.24 742.732 854.24 742.18Z" fill="#11181C"/>
<path d="M855.28 749.18C854.706 749.18 854.24 749.628 854.24 750.18C854.24 750.732 854.706 751.18 855.28 751.18H867.752C868.326 751.18 868.791 750.732 868.791 750.18C868.791 749.628 868.326 749.18 867.752 749.18H855.28Z" fill="#11181C"/>
<path d="M550.731 736.718C546.482 736.718 543.038 740.162 543.038 744.411C543.038 748.659 546.482 752.103 550.731 752.103C554.081 752.103 556.93 749.961 557.985 746.975C558.127 746.574 557.917 746.135 557.516 745.993C557.116 745.852 556.676 746.061 556.535 746.462C555.689 748.853 553.409 750.565 550.731 750.565C547.332 750.565 544.577 747.809 544.577 744.411C544.577 741.012 547.332 738.257 550.731 738.257C551.924 738.257 552.936 738.689 553.897 739.365C554.544 739.82 555.142 740.365 555.749 740.949H553.423C552.998 740.949 552.654 741.294 552.654 741.718C552.654 742.143 552.998 742.488 553.423 742.488H557.654C558.079 742.488 558.423 742.143 558.423 741.718V737.488C558.423 737.063 558.079 736.718 557.654 736.718C557.229 736.718 556.885 737.063 556.885 737.488V739.906C556.232 739.277 555.535 738.636 554.782 738.107C553.65 737.31 552.334 736.718 550.731 736.718Z" fill="#889096"/>
<path d="M507.038 737.488C507.038 737.063 507.383 736.718 507.808 736.718C508.233 736.718 508.577 737.063 508.577 737.488V739.906C509.228 739.278 509.923 738.64 510.673 738.111C511.807 737.312 513.124 736.718 514.731 736.718C518.979 736.718 522.423 740.162 522.423 744.411C522.423 748.659 518.979 752.103 514.731 752.103C511.38 752.103 508.532 749.961 507.476 746.975C507.335 746.574 507.545 746.135 507.945 745.993C508.346 745.852 508.785 746.061 508.927 746.462C509.772 748.853 512.053 750.565 514.731 750.565C518.129 750.565 520.885 747.809 520.885 744.411C520.885 741.012 518.129 738.257 514.731 738.257C513.535 738.257 512.522 738.69 511.559 739.369C510.914 739.823 510.318 740.367 509.712 740.949H512.038C512.463 740.949 512.808 741.294 512.808 741.718C512.808 742.143 512.463 742.488 512.038 742.488H507.808C507.383 742.488 507.038 742.143 507.038 741.718V737.488Z" fill="#11181C"/>
<rect x="1108.19" y="164.559" width="4.18966" height="62.8448" rx="2.09483" fill="#808080" fill-opacity="0.55"/>
<defs>
<clipPath id="clip0_2083_6382">
<rect width="14.2308" height="14.2308" fill="white" transform="translate(55.9663 744.058)"/>
</clipPath>
<clipPath id="clip1_2083_6382">
<path d="M1144 2H1440V810H1144V2Z" fill="white"/>
</clipPath>
<clipPath id="clip2_2083_6382">
<rect width="14.6638" height="14.6638" fill="white" transform="translate(1409.62 684.142)"/>
</clipPath>
<clipPath id="clip3_2083_6382">
<rect x="1264.24" y="63.6086" width="51.6873" height="19.8797" fill="white"/>
</clipPath>
<clipPath id="clip4_2083_6382">
<rect x="960" y="12.1799" width="171" height="29" rx="14.5" fill="white"/>
</clipPath>
</defs>
</svg>
